<?xml version="1.0" encoding="UTF-8" standalone="no"?>
<svg
   xmlns:dc="http://purl.org/dc/elements/1.1/"
   xmlns:cc="http://creativecommons.org/ns#"
   xmlns:rdf="http://www.w3.org/1999/02/22-rdf-syntax-ns#"
   xmlns:svg="http://www.w3.org/2000/svg"
   xmlns="http://www.w3.org/2000/svg"
   xmlns:sodipodi="http://sodipodi.sourceforge.net/DTD/sodipodi-0.dtd"
   xmlns:inkscape="http://www.inkscape.org/namespaces/inkscape"
   height="100px"
   width="100px"
   fill="#000000"
   version="1.1"
   x="0px"
   y="0px"
   viewBox="0 0 24 24"
   style="enable-background:new 0 0 24 24;"
   xml:space="preserve"
   id="svg16"
   sodipodi:docname="logo.svg"
   inkscape:version="0.92.4 (5da689c313, 2019-01-14)"><metadata
     id="metadata22"><rdf:RDF><cc:Work
         rdf:about=""><dc:format>image/svg+xml</dc:format><dc:type
           rdf:resource="http://purl.org/dc/dcmitype/StillImage" /></cc:Work></rdf:RDF></metadata><defs
     id="defs20" /><sodipodi:namedview
     pagecolor="#ffffff"
     bordercolor="#666666"
     borderopacity="1"
     objecttolerance="10"
     gridtolerance="10"
     guidetolerance="10"
     inkscape:pageopacity="0"
     inkscape:pageshadow="2"
     inkscape:window-width="3840"
     inkscape:window-height="2066"
     id="namedview18"
     showgrid="false"
     inkscape:zoom="9.44"
     inkscape:cx="51.209621"
     inkscape:cy="80.161668"
     inkscape:window-x="-11"
     inkscape:window-y="-11"
     inkscape:window-maximized="1"
     inkscape:current-layer="g12" /><style
     type="text/css"
     id="style2">
	.st0{fill:#000000;}
</style><g
     id="g14"><g
       id="g12"><g
         id="g6"
         style="fill:#aa0000"><path
           d="M 12,2 C 6.4771729,2 2,6.4771729 2,12 2,17.522827 6.4771729,22 12,22 17.522888,22 22,17.522827 22,12 22,6.4771729 17.522888,2 12,2 Z m 6.385193,16.334351 C 16.652039,16.886536 14.435059,16 12,16 9.5649414,16 7.3417969,16.879761 5.6081543,18.327026 3.9974365,16.700012 3,14.464844 3,12 3,7.0373535 7.0374146,3 12,3 c 4.962646,0 9,4.0373535 9,9 0,2.468384 -1,4.706726 -2.614807,6.334351 z"
           id="path4"
           inkscape:connector-curvature="0"
           style="fill:#aa0000" /></g><g
         id="g10"
         style="fill:#00aad4"><path
           d="M 12.82019,10.17981 C 12.569397,10.066528 12.293091,10 12,10 c -1.104553,0 -2,0.895386 -2,2 0,1.104553 0.895447,2 2,2 1.104553,0 2,-0.895447 2,-2 0,-0.293091 -0.06653,-0.569336 -0.17981,-0.82019 L 17,8 V 7 h -1 z"
           id="path8"
           inkscape:connector-curvature="0"
           style="fill:#00aad4" /></g></g></g></svg>